<?xml version="1.0" standalone="no"?>
<!DOCTYPE svg PUBLIC "-//W3C//DTD SVG 20010904//EN"
 "http://www.w3.org/TR/2001/REC-SVG-20010904/DTD/svg10.dtd">
<svg version="1.0" xmlns="http://www.w3.org/2000/svg"
 width="260.000000pt" height="260.000000pt" viewBox="0 0 260.000000 260.000000"
 preserveAspectRatio="xMidYMid meet">
<metadata>
Created by potrace 1.14, written by Peter Selinger 2001-2017
</metadata>
<g transform="translate(0.000000,260.000000) scale(0.100000,-0.100000)"
fill="#000000" stroke="none">
<path d="M1822 2561 c-132 -34 -231 -205 -307 -533 l-18 -76 -76 2 c-79 2
-157 -9 -255 -38 -32 -9 -59 -16 -60 -14 -1 2 -13 48 -26 103 -91 391 -210
540 -413 522 -118 -11 -256 -108 -320 -225 -32 -58 -55 -153 -50 -202 11 -102
83 -211 153 -230 64 -17 160 15 233 80 23 19 45 30 65 30 47 0 86 39 85 84 -2
67 -62 102 -123 71 -31 -16 -55 -58 -46 -81 10 -26 -137 -54 -183 -34 -115 47
-37 317 112 389 110 53 227 -8 297 -153 35 -75 77 -235 86 -331 4 -38 8 -72
10 -74 2 -2 -23 -20 -56 -40 -83 -51 -135 -97 -187 -166 -54 -71 -97 -162
-108 -228 -3 -15 -7 -39 -10 -55 -7 -35 -7 -173 0 -232 6 -50 48 -219 64 -262
l11 -28 -47 0 c-66 0 -128 -33 -150 -78 -19 -40 -24 -154 -10 -227 15 -79 91
-158 166 -171 23 -4 52 -21 81 -49 25 -24 59 -50 77 -59 38 -19 112 -23 170
-9 38 10 44 9 65 -14 39 -41 160 -130 216 -158 104 -52 174 -34 312 81 83 69
112 87 168 103 70 21 138 69 183 127 18 25 34 33 68 38 59 8 104 44 156 126
24 38 50 72 58 77 24 14 64 80 71 118 8 42 -13 91 -51 119 -19 14 -44 20 -90
20 -35 1 -63 1 -63 1 0 0 11 32 25 70 13 39 25 88 25 109 0 53 -32 117 -82
162 l-41 37 2 71 c6 201 -151 455 -342 556 -54 29 -54 27 -32 152 49 278 154
429 300 428 112 -1 236 -153 237 -291 1 -102 -39 -138 -140 -124 -70 10 -100
26 -120 65 -49 99 -195 33 -152 -69 14 -35 59 -56 101 -47 25 5 39 -1 82 -33
58 -44 136 -71 187 -65 70 8 142 95 165 198 46 202 -160 456 -374 463 -36 1
-81 -2 -99 -6z"/>
</g>
</svg>
